<svg class="icon" style="width: 1.138671875em;height: 1em;vertical-align: middle;fill: currentColor;overflow: hidden;" viewBox="0 0 1166 1024" version="1.1" xmlns="http://www.w3.org/2000/svg" p-id="900" data-spm-anchor-id="a313x.icontype_auditing.i1.i4.440d3a81bdXubv"><path d="M583.184458 13.559491L571.345419 6.833206 1.788492 1003.71335c-2.381416 4.228228-2.381416 9.331262 0 13.55949a13.316489 13.316489 0 0 0 11.722398 6.726285h1139.347137c4.879473 0 9.331262-2.604977 11.722398-6.726285s2.488337-9.331262 0-13.55949L595.013778 6.833206A13.715012 13.715012 0 0 0 583.184458 0c-4.879473 0-9.331262 2.604977-11.829319 6.833206l11.829319 6.726285-11.829319 6.736005 558.067811 976.574928H36.839046L594.906857 20.295496l-11.722399-6.736005-11.829319 6.736005 11.829319-6.736005zM583.184458 193.04049l-11.829319-6.726285-416.242342 728.42167c-2.381416 4.228228-2.381416 9.331262 0 13.55949a13.316489 13.316489 0 0 0 11.722398 6.726285h832.591606a13.52061 13.52061 0 0 0 11.712678-20.285775l-416.125701-728.42167c-2.391136-4.237948-6.949846-6.842926-11.82932-6.842925s-9.331262 2.604977-11.829319 6.842925l11.829319 6.726285-11.829319 6.726285 404.743506 708.242815H190.270272l404.743506-708.242815-11.82932-6.726285-11.829319 6.726285 11.829319-6.726285z m0 179.364359l-11.829319 6.726285L822.667419 818.915474H343.701498l251.31228-439.78434-11.82932-6.726285-11.829319 6.726285 11.829319-6.726285-11.829319-6.726285-262.811116 460.079836c-2.381416 4.228228-2.381416 9.331262 0 13.559491s6.842926 6.726285 11.722398 6.726285h525.836075c4.879473 0 9.331262-2.604977 11.722398-6.726285s2.488337-9.331262 0-13.559491L595.013778 365.668844a13.578931 13.578931 0 0 0-11.82932-6.842925c-4.879473 0-9.331262 2.604977-11.829319 6.842925l11.829319 6.726285zM473.697647 743.50721l11.829319 6.726285 97.764413-171.121744 86.158656 150.826248H473.804567v13.569211l11.829319 6.726285-11.936239-6.726285v13.559491h219.080544a13.50117 13.50117 0 0 0 11.722398-20.285776L595.013778 545.042923c-2.391136-4.228228-6.949846-6.833206-11.82932-6.833205s-9.331262 2.604977-11.829319 6.833205L461.868327 736.780925c-2.381416 4.228228-2.381416 9.331262 0 13.559491a13.316489 13.316489 0 0 0 11.722399 6.726285v-13.559491z" p-id="901"></path></svg>